<svg width="19" height="20" viewBox="0 0 19 20" fill="none" xmlns="http://www.w3.org/2000/svg">
<path d="M11.9146 9.63634C12.1278 9.44725 12.3429 9.20906 12.5455 8.90907C13.5704 7.39073 13.9363 4.45433 13.2727 3.09089C13.042 2.61691 12.6154 2.26306 12.1332 2.00012C10.6054 1.16686 8.66728 1.16686 7.13949 2.00012C6.65737 2.26306 6.2307 2.61691 6 3.09089C5.33638 4.45433 5.70234 7.39073 6.72727 8.90907C6.92978 9.20906 7.14491 9.44725 7.35812 9.63634M11.9146 9.63634C11.436 10.0608 10.6993 10.2379 10.194 10.3116C9.82407 10.3655 9.44866 10.3655 9.07873 10.3116C8.57341 10.2379 7.83669 10.0608 7.35812 9.63634M11.9146 9.63634C13.9287 11.094 16.8745 13.0987 17.8187 14.7652C17.9007 14.91 17.9551 15.1815 17.9815 15.3399C17.9951 15.422 18 15.505 18 15.5882V17.6363C18 18.4397 17.3488 19.0909 16.5455 19.0909H9.63636H2.72727C1.92395 19.0909 1.27273 18.4397 1.27273 17.6363V15.5542C1.27273 15.4937 1.27633 15.4334 1.28578 15.3736C1.30957 15.2231 1.36585 14.9209 1.45407 14.7652C2.39827 13.0987 5.344 11.094 7.35812 9.63634" stroke="black" stroke-width="1.5" stroke-linecap="round"/>
</svg>
